<svg viewBox="0 0 24 24" fill="none" xmlns="http://www.w3.org/2000/svg">
  <style>
    svg { color: #000; }
    @media (prefers-color-scheme: dark) { svg { color: #fff; } }
  </style>
  <path d="M5.4418 13.9406C4.5189 10.8368 5.9231 7.4146 8.9147 5.9097C11.9063 4.4049 15.4914 5.3184 17.4326 7.9104C18.362 7.5622 19.2119 7.2705 19.9675 7.0295C17.4276 2.9362 12.1364 1.3873 7.7501 3.5935C3.3637 5.7997 1.452 10.9707 3.224 15.4505C3.8682 14.9872 4.6086 14.4791 5.4425 13.9406H5.4418Z" fill="currentColor"/>
  <path d="M20.7304 8.5495C22.8657 7.015 23.9544 5.9756 23.9544 5.9756C23.9544 5.9756 18.8275 9.1416 12.2131 12.4683C5.5981 15.795 0 18.0237 0 18.0237C0 18.0237 1.4831 17.7696 3.9883 16.9705C6.5282 21.0637 11.8194 22.6127 16.2058 20.4064C20.5922 18.2003 22.5038 13.0293 20.7318 8.5495H20.7304ZM15.0404 18.0903C12.0488 19.5951 8.4637 18.6816 6.5224 16.0896C8.3074 15.4208 10.3884 14.5392 12.6757 13.3883C14.9637 12.2374 16.9115 11.0923 18.5126 10.0587C19.4355 13.1624 18.0312 16.5847 15.0397 18.0895L15.0404 18.0903Z" fill="currentColor"/>
</svg>
