<svg width="480" height="95" viewBox="0 0 480 95" fill="none" xmlns="http://www.w3.org/2000/svg">
<g clip-path="url(#clip0_132_575)">
<path d="M9.38059 40.0324H41.5274V33.0289H9.38059V8.10798H43.6412V1.10449H1.98242V72.9068H42.4742L45.0063 65.9254H9.38059V40.0324Z" fill="#8C9EA9"/>
<path d="M78.054 21.1426H78.0761C63.2798 21.1647 52.7109 31.2391 52.7109 48.2065V94.1379H59.8008V48.4275C59.8008 35.2821 67.5073 28.0577 78.0761 28.0577C87.8963 28.0577 96.2632 35.1716 96.2632 46.6158C96.2632 56.8007 89.7018 66.1239 75.544 66.1239H67.9256L70.3476 72.9065H76.0504C93.2687 72.9065 103.529 61.0205 103.529 46.7042C103.529 31.6368 92.3219 21.1426 78.054 21.1426Z" fill="#8C9EA9"/>
<path d="M174.891 47.5662C174.891 37.4917 182.289 29.1185 194.135 29.1185H200.586V22.3359H193.937C178.084 22.3359 167.625 33.7801 167.625 47.6766C167.625 61.5731 178.194 72.9069 193.937 72.9069H199.111L201.643 66.1243H194.135C182.289 66.1243 174.891 57.6406 174.891 47.5662Z" fill="#8C9EA9"/>
<path d="M231.655 21.1653C224.477 21.1653 218.753 24.2363 215.582 29.3397V1.12695H208.492V72.9293H215.582V44.7165C215.582 34.6421 221.505 28.0583 230.797 28.0583C239.032 28.0583 245.285 34.6421 245.285 44.7165V72.9293H252.375V44.4956C252.375 30.0688 243.281 21.1653 231.655 21.1653Z" fill="#8C9EA9"/>
<path d="M285.578 21.1875H285.644C271.266 21.1654 260.059 31.6596 260.059 46.7271C260.059 61.7945 270.429 72.9294 287.648 72.9294H293.24L295.662 66.1469H288.154C273.886 66.1469 267.325 56.8236 267.325 46.6387C267.325 35.1945 275.67 28.0806 285.512 28.0806C296.081 28.0806 303.787 35.2829 303.787 48.4503V70.3004C303.787 81.5457 296.499 88.2178 286.128 88.2178H271.222L273.644 95.0003H286.216C300.374 95.0003 310.833 85.6771 310.833 70.2782V48.2294C310.833 31.2619 300.264 21.1875 285.578 21.1875Z" fill="#8C9EA9"/>
<path d="M320.874 38.9726H320.852V72.9075H327.941V39.2819C327.941 31.8586 332.059 29.097 337.145 29.097H343.707V22.3145H336.419C326.797 22.3145 320.874 28.7877 320.874 38.9726Z" fill="#8C9EA9"/>
<path d="M370.172 21.2092V21.165C355.926 21.165 344.719 31.6592 344.719 46.7267C344.719 61.7941 354.979 72.929 372.198 72.929H377.9L380.322 66.1464H372.704C358.546 66.1464 351.985 56.8232 351.985 46.6383C351.985 35.1941 360.33 28.0802 370.172 28.0802C380.741 28.0802 388.447 35.2825 388.447 48.4499V72.9511H395.537V48.2511C395.537 31.2836 384.968 21.2092 370.172 21.2092Z" fill="#8C9EA9"/>
<path d="M458.289 21.165H458.245C450.737 21.165 445.144 24.7662 441.753 30.7092C438.473 24.8766 432.462 21.165 424.953 21.165C413.746 21.165 405.291 29.229 405.291 41.7337V72.9069H412.381V42.0429C412.381 33.8685 417.137 27.9476 425.284 27.9476C433.43 27.9476 438.076 33.8906 438.076 42.0429V72.9069H445.166V42.0429C445.166 33.8685 449.922 27.9476 457.959 27.9476C465.996 27.9476 470.752 33.8906 470.752 42.0429V72.9069H477.841V41.7337C477.841 29.3174 469.497 21.165 458.289 21.165Z" fill="#8C9EA9"/>
<path d="M169.124 30.665C169.098 30.6904 166.059 33.6003 160.118 37.8896C165.072 50.4825 159.722 65.0193 147.437 71.2275C135.15 77.4357 120.309 73.0836 113.197 61.5732C106.174 63.8267 102.012 64.5332 102.012 64.5332C102.012 64.5332 117.689 58.2593 136.229 48.9141C154.73 39.5877 169.066 30.701 169.124 30.665ZM153.888 42.1533C149.396 45.0696 143.935 48.2949 137.527 51.5205C131.12 54.7681 125.285 57.2432 120.287 59.1211C125.726 66.4116 135.766 68.9742 144.155 64.7324C152.544 60.5127 156.464 50.88 153.888 42.1533ZM123.743 23.9932C136.029 17.7854 150.87 22.1381 157.981 33.6484C155.846 34.3333 153.467 35.15 150.869 36.1221C145.431 28.8316 135.39 26.2686 127.001 30.4883C118.612 34.7081 114.693 44.3411 117.27 53.0898C114.936 54.5921 112.866 56.0286 111.061 57.332C106.106 44.739 111.457 30.2013 123.743 23.9932Z" fill="#C14D58"/>
</g>
<defs>
<clipPath id="clip0_132_575">
<rect width="480" height="95" fill="white"/>
</clipPath>
</defs>
</svg>
