<svg width="820" height="96" viewBox="0 0 820 96" fill="none" xmlns="http://www.w3.org/2000/svg">
<g clip-path="url(#clip0_184_1452)">
<path d="M7.1335 53.8406H31.5785V48.5327H7.1335V29.6453H33.1858V24.3374H1.50781V78.756H32.2984L34.2239 73.4648H7.1335V53.8406Z" fill="#8C9EA9"/>
<path d="M59.3553 39.5244H59.3721C48.1207 39.5412 40.084 47.1765 40.084 60.036V94.8472H45.4753V60.2035C45.4753 50.2407 51.3354 44.7653 59.3721 44.7653C66.8395 44.7653 73.2019 50.157 73.2019 58.8305C73.2019 66.5495 68.2124 73.6156 57.4466 73.6156H51.6535L53.4952 78.756H57.8317C70.9248 78.756 78.7271 69.7477 78.7271 58.8974C78.7271 47.4779 70.2048 39.5244 59.3553 39.5244Z" fill="#8C9EA9"/>
<path d="M132.99 59.5501C132.99 51.9147 138.616 45.5687 147.624 45.5687H152.529V40.4282H147.473C135.418 40.4282 127.465 49.1017 127.465 59.6338C127.465 70.1659 135.502 78.7557 147.473 78.7557H151.407L153.333 73.6152H147.624C138.616 73.6152 132.99 67.1854 132.99 59.5501Z" fill="#8C9EA9"/>
<path d="M176.155 39.541C170.697 39.541 166.343 41.8684 163.932 45.7363V24.354H158.541V78.7726H163.932V57.3903C163.932 49.7549 168.436 44.7652 175.502 44.7652C181.764 44.7652 186.519 49.7549 186.519 57.3903V78.7726H191.91V57.2229C191.91 46.2889 184.995 39.541 176.155 39.541Z" fill="#8C9EA9"/>
<path d="M217.159 39.5576H217.209C206.276 39.5409 197.754 47.4944 197.754 58.9139C197.754 70.3335 205.64 78.7726 218.733 78.7726H222.986L224.828 73.6321H219.118C208.269 73.6321 203.279 66.566 203.279 58.8469C203.279 50.1734 209.625 44.7818 217.109 44.7818C225.146 44.7818 231.006 50.2404 231.006 60.22V76.78C231.006 85.3028 225.464 90.3595 217.578 90.3595H206.243L208.084 95.5H217.645C228.411 95.5 236.364 88.4339 236.364 76.7632V60.0525C236.364 47.193 228.327 39.5576 217.159 39.5576Z" fill="#8C9EA9"/>
<path d="M243.997 53.0367H243.98V78.7558H249.372V53.2711C249.372 47.6451 252.503 45.5521 256.37 45.5521H261.36V40.4116H255.818C248.501 40.4116 243.997 45.3177 243.997 53.0367Z" fill="#8C9EA9"/>
<path d="M281.486 39.5745V39.541C270.653 39.541 262.131 47.4945 262.131 58.914C262.131 70.3336 269.933 78.7727 283.026 78.7727H287.363L289.205 73.6322H283.411C272.646 73.6322 267.656 66.5661 267.656 58.847C267.656 50.1735 274.002 44.782 281.486 44.782C289.523 44.782 295.383 50.2405 295.383 60.2201V78.7894H300.774V60.0694C300.774 47.2098 292.737 39.5745 281.486 39.5745Z" fill="#8C9EA9"/>
<path d="M348.492 39.541H348.459C342.749 39.541 338.496 42.2703 335.918 46.7745C333.423 42.354 328.852 39.541 323.143 39.541C314.621 39.541 308.191 45.6527 308.191 55.1299V78.7559H313.583V55.3643C313.583 49.1689 317.199 44.6815 323.394 44.6815C329.589 44.6815 333.122 49.1857 333.122 55.3643V78.7559H338.513V55.3643C338.513 49.1689 342.13 44.6815 348.241 44.6815C354.352 44.6815 357.969 49.1857 357.969 55.3643V78.7559H363.36V55.1299C363.36 45.7196 357.014 39.541 348.492 39.541Z" fill="#8C9EA9"/>
<path fill-rule="evenodd" clip-rule="evenodd" d="M128.604 46.7411C128.604 46.7411 126.292 48.9506 121.755 52.2157C125.522 61.7599 121.454 72.7781 112.111 77.4833C102.769 82.1884 91.4832 78.8896 86.0752 70.1659C80.7598 71.8656 77.6004 72.4049 77.5703 72.41C77.6135 72.3928 89.5168 67.6411 103.589 60.5712C117.686 53.4884 128.604 46.7411 128.604 46.7411ZM117.017 55.4481C113.601 57.6583 109.449 60.1032 104.577 62.5477C99.7049 65.0091 95.2675 66.8843 91.4668 68.3075C95.6023 73.833 103.237 75.7752 109.616 72.5604C115.995 69.3623 118.975 62.062 117.017 55.4481ZM94.0947 41.6845C103.437 36.9797 114.722 40.2783 120.13 49.0018C118.506 49.5209 116.697 50.1401 114.722 50.8768C110.586 45.3515 102.951 43.4093 96.5723 46.6073C90.1931 49.8055 87.2129 57.1065 89.1719 63.7372C87.3972 64.8758 85.8231 65.9642 84.4502 66.952C80.683 57.4079 84.7521 46.3896 94.0947 41.6845Z" fill="#C14D58"/>
</g>
<path d="M443.47 39.8511C447.159 39.8511 450.463 40.7046 453.382 42.4116C456.356 44.1187 458.696 46.4594 460.403 49.4331C462.11 52.4068 462.964 55.8215 462.964 59.6763C462.964 63.4757 462.11 66.8898 460.403 69.9185C458.696 72.8921 456.355 75.2328 453.382 76.9399C450.463 78.647 447.159 79.5004 443.47 79.5005C439.78 79.5005 436.448 78.647 433.475 76.9399C430.556 75.2328 428.243 72.8922 426.536 69.9185C424.829 66.8898 423.975 63.4759 423.975 59.6763C423.975 55.8215 424.829 52.4068 426.536 49.4331C428.243 46.4596 430.556 44.1187 433.475 42.4116C436.448 40.7046 439.78 39.8511 443.47 39.8511ZM765.415 39.8511C768.279 39.8511 770.729 40.3192 772.767 41.2554C774.804 42.1915 776.373 43.5411 777.475 45.3032C778.576 47.0654 779.127 49.2134 779.127 51.7466V78.6743H774.832V71.7817C774.52 72.5087 774.135 73.1822 773.675 73.8013C772.243 75.7286 770.453 77.1601 768.306 78.0962C766.158 79.0323 763.983 79.5005 761.78 79.5005C759.633 79.5005 757.567 79.0603 755.585 78.1792C753.603 77.243 752.005 75.8935 750.794 74.1313C749.583 72.3692 748.977 70.1391 748.977 67.4409C748.977 63.7514 750.243 60.8327 752.776 58.6851C755.365 56.5374 758.862 55.4634 763.268 55.4634C765.745 55.4634 767.866 55.7659 769.628 56.3716C771.445 56.9222 772.932 57.5561 774.088 58.272C774.353 58.4363 774.601 58.5949 774.832 58.7476V52.3247C774.832 51.2235 774.666 50.1771 774.336 49.186C774.006 48.1398 773.455 47.2035 772.684 46.3774C771.968 45.5514 770.977 44.8906 769.71 44.395C768.443 43.8994 766.901 43.6509 765.084 43.6509C763.212 43.6509 761.533 43.8715 760.046 44.312C758.559 44.7526 757.264 45.2756 756.163 45.8813C755.117 46.4871 754.235 47.0651 753.52 47.6157L751.372 44.395C752.804 43.4038 754.649 42.4116 756.906 41.4204C759.219 40.3741 762.056 39.8511 765.415 39.8511ZM592.74 49.5142C594.117 46.5406 596.017 44.2007 598.44 42.4937C600.863 40.7316 603.671 39.8502 606.865 39.8501C610.279 39.8501 613.364 40.6486 616.117 42.2456C618.926 43.8426 621.129 46.1283 622.726 49.1021C624.378 52.0206 625.203 55.5453 625.203 59.6753C625.203 63.75 624.377 67.274 622.726 70.2476C621.129 73.2213 618.926 75.507 616.117 77.104C613.364 78.701 610.279 79.4995 606.865 79.4995C603.672 79.4994 600.863 78.6459 598.44 76.939C596.017 75.1768 594.117 72.809 592.74 69.8354V78.6733H588.445V14.2437H592.74V49.5142ZM644.67 39.9321C646.818 39.9321 648.745 40.2905 650.452 41.0063C652.159 41.7222 653.619 42.6585 654.83 43.8149C656.041 44.9713 656.978 46.2651 657.639 47.6968L654.087 49.8442C653.206 48.1923 651.966 46.7608 650.369 45.5493C648.772 44.338 646.708 43.732 644.175 43.7319C642.303 43.7319 640.705 44.2002 639.384 45.1362C638.117 46.0724 637.483 47.449 637.483 49.2661C637.483 50.753 637.897 51.9926 638.723 52.9839C639.549 53.9199 640.65 54.6907 642.026 55.2964C643.403 55.9021 644.863 56.4801 646.404 57.0308C648.442 57.8017 650.314 58.6552 652.021 59.5913C653.784 60.5275 655.188 61.6843 656.234 63.061C657.336 64.4376 657.887 66.1997 657.887 68.3472C657.887 71.6513 656.73 74.3503 654.417 76.4429C652.159 78.4802 649.213 79.4994 645.579 79.4995C642.936 79.4995 640.622 79.0314 638.64 78.0952C636.712 77.1591 635.143 75.9472 633.932 74.4604C632.775 72.9736 631.922 71.4314 631.371 69.8345L634.84 67.8521C635.391 69.2288 636.134 70.4954 637.07 71.6519C638.006 72.8082 639.19 73.7446 640.622 74.4604C642.109 75.1763 643.844 75.5337 645.826 75.5337C648.139 75.5337 649.984 74.9556 651.36 73.7993C652.792 72.5878 653.509 70.9359 653.509 68.8433C653.509 67.3013 653.068 66.0347 652.187 65.0435C651.305 63.9973 650.149 63.1437 648.718 62.4829C647.286 61.767 645.744 61.1332 644.092 60.5825C642.33 59.9218 640.623 59.179 638.971 58.353C637.319 57.527 635.941 56.4251 634.84 55.0483C633.794 53.6166 633.271 51.7718 633.271 49.5142C633.271 47.3666 633.794 45.5768 634.84 44.145C635.941 42.7133 637.346 41.6672 639.053 41.0063C640.815 40.2905 642.687 39.9321 644.67 39.9321ZM720.888 78.6733H716.592V69.647C716.564 69.7095 716.538 69.7732 716.51 69.8354C715.188 72.8089 713.343 75.1768 710.976 76.939C708.608 78.6461 705.771 79.4995 702.467 79.4995C699.108 79.4995 696.024 78.7009 693.216 77.104C690.462 75.507 688.259 73.2213 686.607 70.2476C684.956 67.274 684.129 63.7501 684.129 59.6753C684.129 55.5453 684.955 52.0206 686.607 49.1021C688.259 46.1283 690.462 43.8426 693.216 42.2456C696.024 40.6487 699.108 39.8501 702.467 39.8501C705.771 39.8501 708.608 40.7315 710.976 42.4937C713.343 44.2008 715.188 46.5416 716.51 49.5151C716.538 49.5759 716.564 49.6376 716.592 49.6987V14.2437H720.888V78.6733ZM549.938 20.1079C554.068 20.1079 557.868 20.8506 561.337 22.3374C564.861 23.8243 567.918 25.9174 570.506 28.6157C573.094 31.259 575.104 34.3982 576.536 38.0327C577.968 41.6121 578.684 45.5221 578.684 49.7622C578.684 54.0022 577.968 57.9394 576.536 61.5737C575.104 65.1532 573.094 68.2924 570.506 70.9907C567.918 73.634 564.861 75.6992 561.337 77.186C557.868 78.6729 554.068 79.4165 549.938 79.4165C545.807 79.4165 541.98 78.6728 538.456 77.186C534.987 75.6992 531.958 73.6339 529.37 70.9907C526.782 68.2924 524.772 65.1532 523.34 61.5737C521.908 57.9394 521.192 54.0023 521.192 49.7622C521.192 45.522 521.908 41.6121 523.34 38.0327C524.772 34.3982 526.782 31.259 529.37 28.6157C531.958 25.9174 534.987 23.8242 538.456 22.3374C541.98 20.8506 545.808 20.1079 549.938 20.1079ZM485.668 39.8511C486.879 39.8511 488.008 40.0438 489.055 40.4292C490.156 40.7596 491.147 41.3385 492.028 42.1646L489.633 45.7163C488.807 45.1106 488.008 44.6703 487.237 44.395C486.521 44.0646 485.668 43.8989 484.677 43.8989C482.805 43.899 481.29 44.422 480.134 45.4683C479.032 46.5146 478.234 47.919 477.738 49.6812C477.305 51.223 477.061 52.9125 477.007 54.7495L476.995 55.5464V78.6753H472.699V40.6772H476.995V46.2202C477.854 44.4627 478.928 43.028 480.217 41.9165C481.869 40.54 483.686 39.8511 485.668 39.8511ZM807.377 39.8511C811.342 39.8511 814.37 41.1179 816.463 43.6509C818.556 46.129 819.602 49.4887 819.602 53.729V78.6753H815.307V54.2241C815.307 50.9752 814.591 48.4417 813.159 46.6245C811.727 44.8074 809.469 43.899 806.386 43.8989C804.238 43.8989 802.311 44.4221 800.604 45.4683C798.952 46.4594 797.63 47.8362 796.639 49.5981C795.703 51.3603 795.234 53.3436 795.234 55.5464V78.6753H790.938V40.6772H795.234V48.6069C796.281 45.8538 797.85 43.7064 799.942 42.1646C802.09 40.6226 804.568 39.8511 807.377 39.8511ZM414.877 13.4995C416.088 13.4995 417.136 13.6922 418.017 14.0776C418.953 14.408 419.751 14.8483 420.412 15.3989C421.128 15.9495 421.678 16.5007 422.063 17.0513L419.668 20.521C419.062 19.6401 418.319 18.9791 417.438 18.5386C416.557 18.043 415.621 17.7945 414.63 17.7944C413.253 17.7944 412.151 18.1528 411.325 18.8687C410.554 19.5845 409.976 20.6037 409.591 21.9253C409.205 23.2469 409.013 24.7612 409.013 26.4683V40.6763H418.842V44.7231H409.013V78.6733H404.717V44.7231H401V40.6763H404.717V25.9722C404.717 23.3843 405.075 21.1819 405.791 19.3647C406.562 17.4924 407.691 16.0601 409.178 15.0688C410.665 14.0226 412.564 13.4996 414.877 13.4995ZM673.44 78.6724H669.145V40.6753H673.44V78.6724ZM738.7 78.6724H734.405V40.6753H738.7V78.6724ZM763.928 58.9331C761.78 58.9331 759.907 59.2356 758.311 59.8413C756.769 60.447 755.558 61.3557 754.677 62.5669C753.796 63.7784 753.354 65.3485 753.354 67.2759C753.355 69.148 753.768 70.7174 754.594 71.9839C755.475 73.2505 756.632 74.2147 758.063 74.8755C759.55 75.4811 761.175 75.7837 762.937 75.7837C765.084 75.7837 767.04 75.2876 768.802 74.2964C770.619 73.3052 772.078 71.8457 773.18 69.9185C774.281 67.9911 774.832 65.6232 774.832 62.8149V61.7163C773.467 60.9447 772.035 60.3472 770.536 59.9243C768.444 59.2635 766.241 58.9331 763.928 58.9331ZM443.47 43.8989C440.606 43.8989 438.018 44.5877 435.705 45.9644C433.447 47.286 431.658 49.1306 430.336 51.4985C429.014 53.8665 428.353 56.5924 428.353 59.6763C428.353 62.7601 429.014 65.4861 430.336 67.854C431.658 70.2218 433.447 72.0945 435.705 73.4712C438.018 74.7927 440.606 75.4536 443.47 75.4536C446.333 75.4536 448.894 74.7927 451.151 73.4712C453.464 72.0945 455.282 70.2219 456.604 67.854C457.925 65.4861 458.586 62.7601 458.586 59.6763C458.586 56.6475 457.925 53.9485 456.604 51.5806C455.282 49.1577 453.464 47.286 451.151 45.9644C448.894 44.5877 446.333 43.899 443.47 43.8989ZM606.287 43.8979C603.975 43.898 601.772 44.586 599.68 45.9624C597.587 47.3391 595.907 49.2117 594.641 51.5796C593.374 53.9475 592.74 56.6465 592.74 59.6753C592.74 62.7039 593.374 65.4022 594.641 67.77C595.907 70.1379 597.587 72.0105 599.68 73.3872C601.772 74.7637 603.975 75.4516 606.287 75.4517C608.985 75.4517 611.436 74.8457 613.639 73.6343C615.841 72.3677 617.604 70.551 618.926 68.1831C620.247 65.8153 620.908 62.9792 620.908 59.6753C620.908 56.3712 620.247 53.5345 618.926 51.1665C617.604 48.7986 615.841 47.0089 613.639 45.7974C611.436 44.5309 608.985 43.8979 606.287 43.8979ZM703.045 43.8979C700.402 43.898 697.951 44.5308 695.693 45.7974C693.491 47.0088 691.729 48.7987 690.407 51.1665C689.141 53.5345 688.507 56.3712 688.507 59.6753C688.507 62.9792 689.141 65.8153 690.407 68.1831C691.729 70.5508 693.491 72.3677 695.693 73.6343C697.951 74.8457 700.402 75.4516 703.045 75.4517C705.413 75.4517 707.616 74.7638 709.653 73.3872C711.746 72.0105 713.426 70.1379 714.692 67.77C715.959 65.4022 716.592 62.7039 716.592 59.6753C716.592 56.6465 715.959 53.9475 714.692 51.5796C713.426 49.2117 711.746 47.3391 709.653 45.9624C707.616 44.5858 705.413 43.8979 703.045 43.8979ZM549.938 24.6509C545.312 24.6509 541.181 25.7519 537.547 27.9546C533.968 30.1022 531.132 33.076 529.039 36.8755C527.002 40.6202 525.983 44.9162 525.983 49.7622C525.983 54.553 527.002 58.8483 529.039 62.6479C531.132 66.4476 533.968 69.4491 537.547 71.6519C541.181 73.7995 545.312 74.8735 549.938 74.8735C554.563 74.8735 558.667 73.7995 562.246 71.6519C565.881 69.4491 568.716 66.4476 570.754 62.6479C572.791 58.8483 573.811 54.553 573.811 49.7622C573.811 44.9162 572.791 40.6202 570.754 36.8755C568.716 33.0759 565.88 30.1022 562.246 27.9546C558.667 25.7518 554.563 24.6509 549.938 24.6509ZM671.292 20.437C672.173 20.437 672.89 20.7404 673.44 21.3462C674.046 21.8968 674.349 22.6128 674.349 23.4937C674.349 24.3195 674.046 25.0354 673.44 25.6411C672.89 26.2469 672.173 26.5493 671.292 26.5493C670.466 26.5492 669.75 26.2468 669.145 25.6411C668.539 25.0354 668.236 24.3196 668.236 23.4937C668.236 22.6127 668.539 21.8968 669.145 21.3462C669.75 20.7405 670.466 20.4371 671.292 20.437ZM736.553 20.437C737.434 20.4371 738.15 20.7405 738.7 21.3462C739.306 21.8968 739.608 22.6127 739.608 23.4937C739.608 24.3196 739.306 25.0354 738.7 25.6411C738.15 26.2468 737.434 26.5493 736.553 26.5493C735.727 26.5493 735.011 26.2467 734.405 25.6411C733.8 25.0354 733.496 24.3196 733.496 23.4937C733.496 22.6126 733.8 21.8969 734.405 21.3462C735.011 20.7404 735.727 20.437 736.553 20.437Z" fill="#8C9EA9"/>
<defs>
<clipPath id="clip0_184_1452">
<rect width="365" height="72" fill="white" transform="translate(0 23.5)"/>
</clipPath>
</defs>
</svg>
